<?xml version="1.0" encoding="utf-8" ?>
<svg baseProfile="full" height="800px" version="1.1" width="1200px" xmlns="http://www.w3.org/2000/svg" xmlns:ev="http://www.w3.org/2001/xml-events" xmlns:xlink="http://www.w3.org/1999/xlink"><defs /><rect fill="white" height="800px" width="1200px" x="0" y="0" /><rect fill="#f3f7ff" height="70" rx="20" ry="20" stroke="black" stroke-width="2" width="200" x="500" y="50" /><text alignment-baseline="middle" font-family="Arial" font-size="18px" text-anchor="middle" x="600.0" y="85.0">Internet / VPN</text><rect fill="#f3f7ff" height="70" rx="20" ry="20" stroke="black" stroke-width="2" width="200" x="500" y="160" /><text alignment-baseline="middle" font-family="Arial" font-size="18px" text-anchor="middle" x="600.0" y="195.0">Load Balancer</text><rect fill="#f3f7ff" height="70" rx="20" ry="20" stroke="black" stroke-width="2" width="200" x="500" y="270" /><text alignment-baseline="middle" font-family="Arial" font-size="18px" text-anchor="middle" x="600.0" y="305.0">SCADA Web Server</text><rect fill="#f3f7ff" height="70" rx="20" ry="20" stroke="black" stroke-width="2" width="200" x="500" y="380" /><text alignment-baseline="middle" font-family="Arial" font-size="18px" text-anchor="middle" x="600.0" y="415.0">API Service</text><rect fill="#f3f7ff" height="80" rx="20" ry="20" stroke="black" stroke-width="2" width="250" x="200" y="520" /><text alignment-baseline="middle" font-family="Arial" font-size="18px" text-anchor="middle" x="325.0" y="560.0">Acquisition Engine</text><rect fill="#f3f7ff" height="80" rx="20" ry="20" stroke="black" stroke-width="2" width="250" x="750" y="520" /><text alignment-baseline="middle" font-family="Arial" font-size="18px" text-anchor="middle" x="875.0" y="560.0">Historian Engine</text><rect fill="#f3f7ff" height="80" rx="20" ry="20" stroke="black" stroke-width="2" width="300" x="450" y="680" /><text alignment-baseline="middle" font-family="Arial" font-size="18px" text-anchor="middle" x="600.0" y="720.0">SQL Database</text><line stroke="black" stroke-width="2" x1="600" x2="600" y1="120" y2="160" /><line stroke="black" stroke-width="2" x1="600" x2="600" y1="230" y2="270" /><line stroke="black" stroke-width="2" x1="600" x2="600" y1="340" y2="380" /><line stroke="black" stroke-width="2" x1="600" x2="325" y1="450" y2="520" /><line stroke="black" stroke-width="2" x1="600" x2="875" y1="450" y2="520" /><line stroke="black" stroke-width="2" x1="325" x2="600" y1="600" y2="680" /><line stroke="black" stroke-width="2" x1="875" x2="600" y1="600" y2="680" /></svg>