<?xml version="1.0" encoding="utf-8" ?>
<svg baseProfile="full" height="800px" version="1.1" width="1200px" xmlns="http://www.w3.org/2000/svg" xmlns:ev="http://www.w3.org/2001/xml-events" xmlns:xlink="http://www.w3.org/1999/xlink"><defs /><rect fill="white" height="800px" width="1200px" x="0" y="0" /><rect fill="#eef7ff" height="130" stroke="black" stroke-width="2" width="280" x="100" y="100" /><text font-family="Arial" font-size="18px" x="110" y="125">meters</text><text font-family="Arial" font-size="16px" x="110" y="160">id PK</text><text font-family="Arial" font-size="16px" x="110" y="190">name</text><text font-family="Arial" font-size="16px" x="110" y="220">location</text><rect fill="#eef7ff" height="160" stroke="black" stroke-width="2" width="280" x="450" y="100" /><text font-family="Arial" font-size="18px" x="460" y="125">historical_readings</text><text font-family="Arial" font-size="16px" x="460" y="160">id PK</text><text font-family="Arial" font-size="16px" x="460" y="190">meter_id FK</text><text font-family="Arial" font-size="16px" x="460" y="220">timestamp</text><text font-family="Arial" font-size="16px" x="460" y="250">value</text><rect fill="#eef7ff" height="190" stroke="black" stroke-width="2" width="280" x="800" y="100" /><text font-family="Arial" font-size="18px" x="810" y="125">alarms</text><text font-family="Arial" font-size="16px" x="810" y="160">id PK</text><text font-family="Arial" font-size="16px" x="810" y="190">meter_id FK</text><text font-family="Arial" font-size="16px" x="810" y="220">level</text><text font-family="Arial" font-size="16px" x="810" y="250">message</text><text font-family="Arial" font-size="16px" x="810" y="280">timestamp</text><rect fill="#eef7ff" height="130" stroke="black" stroke-width="2" width="280" x="450" y="400" /><text font-family="Arial" font-size="18px" x="460" y="425">parameters</text><text font-family="Arial" font-size="16px" x="460" y="460">id PK</text><text font-family="Arial" font-size="16px" x="460" y="490">name</text><text font-family="Arial" font-size="16px" x="460" y="520">unit</text><line stroke="black" stroke-width="2" x1="240" x2="450" y1="200" y2="200" /><line stroke="black" stroke-width="2" x1="680" x2="800" y1="200" y2="200" /><line stroke="black" stroke-width="2" x1="590" x2="590" y1="280" y2="400" /></svg>